<?xml version="1.0" encoding="iso-8859-1"?>
<!-- Generator: Adobe Illustrator 18.0.0, SVG Export Plug-In . SVG Version: 6.00 Build 0)  -->
<!DOCTYPE svg PUBLIC "-//W3C//DTD SVG 1.1//EN" "http://www.w3.org/Graphics/SVG/1.1/DTD/svg11.dtd">
<svg version="1.1" id="Capa_1" xmlns="http://www.w3.org/2000/svg" xmlns:xlink="http://www.w3.org/1999/xlink" x="0px" y="0px"
	 viewBox="0 0 178.488 178.488" style="enable-background:new 0 0 178.488 178.488;" xml:space="preserve">
<g>
	<rect x="0" y="0" style="fill:#E76166;" width="178.488" height="178.488"/>
	<g>
		
			<ellipse transform="matrix(-0.3127 -0.9498 0.9498 -0.3127 3.4375 156.1587)" style="fill-rule:evenodd;clip-rule:evenodd;fill:#FFE7DE;" cx="58.215" cy="76.836" rx="7.934" ry="4.588"/>
		
			<ellipse transform="matrix(0.3128 -0.9498 0.9498 0.3128 11.9674 170.2135)" style="fill-rule:evenodd;clip-rule:evenodd;fill:#FFE7DE;" cx="123.617" cy="76.836" rx="7.934" ry="4.589"/>
		<path style="fill-rule:evenodd;clip-rule:evenodd;fill:#4A4545;" d="M113.812,36.422c6.732,1.074,10.457,5.689,12.051,11.954
			c4.15,16.307-4.537,51.673-34.609,52.094c-15.506,0.217-26.677-3.726-30.746-16.277c-4.07-12.552-5.74-32.778,3.105-44.114
			C74.742,25.818,98.1,25.685,113.812,36.422z"/>
		
			<path style="fill-rule:evenodd;clip-rule:evenodd;fill:#51BFD2;stroke:#51BFD2;stroke-width:1.0844;stroke-linecap:round;stroke-linejoin:round;stroke-miterlimit:10;" d="
			M78.247,119.556c-28.144,12.338-36.585,18.915-39.923,21.869c-5.143,4.551-8.163,22.106-11.196,36.509h63.673h63.673
			c-3.033-14.403-5.703-31.958-10.845-36.509c-3.337-2.954-11.47-9.362-39.614-21.7L78.247,119.556z"/>
		<path style="fill-rule:evenodd;clip-rule:evenodd;fill:#FFE7DE;" d="M77.312,94.962v20.886v12.48
			c7.515,8.885,19.813,9.204,27.329,0v-12.48V94.962C104.641,78.118,77.312,78.118,77.312,94.962z"/>
		<path style="fill-rule:evenodd;clip-rule:evenodd;fill:#FFE7DE;" d="M90.977,38.955c-45.863,0-29.369,59.754-26.374,64.166
			c3.303,4.864,18.964,13.421,26.374,13.421c7.41,0,23.07-9.64,26.374-14.505C120.346,97.625,136.84,38.955,90.977,38.955z"/>
		<path style="fill-rule:evenodd;clip-rule:evenodd;fill:#4A4545;" d="M68.644,53.354c8.058,4.9,14.292-2.41,21.569,0.726
			c7.277,3.134,28.149-5.364,32.443,27.761c6.886-24.023-4.74-44.141-30.997-45.284c-28.042-1.22-39.398,20.706-31.645,44.57
			C59.505,68.198,62.667,59.739,68.644,53.354z"/>
		
			<path style="fill-rule:evenodd;clip-rule:evenodd;fill:#F4A247;stroke:#F4A247;stroke-width:2;stroke-linecap:round;stroke-miterlimit:10;" d="
			M76.015,119.223l-9.691,5.245l14.053,19.479l10.662-10.114L76.015,119.223z"/>
		
			<path style="fill-rule:evenodd;clip-rule:evenodd;fill:#F4A247;stroke:#F4A247;stroke-width:2;stroke-linecap:round;stroke-miterlimit:10;" d="
			M106.063,119.223l9.692,5.245l-14.053,19.479l-10.662-10.114L106.063,119.223z"/>
		<g>
			<g>
				<path style="fill:#4A4545;" d="M67.932,51.29c0.623,3.974,6.509,4.572,9.663,4.886c6.183,0.615,13.844-1.759,18.873-5.285
					c0.382-0.268,0.242-0.839-0.235-0.868c-5.357-0.335-10.218,3.413-15.596,3.864c-3.902,0.327-9.178-0.202-12.209-2.884
					C68.192,50.793,67.886,50.999,67.932,51.29L67.932,51.29z"/>
			</g>
		</g>
	</g>
</g>
<g>
</g>
<g>
</g>
<g>
</g>
<g>
</g>
<g>
</g>
<g>
</g>
<g>
</g>
<g>
</g>
<g>
</g>
<g>
</g>
<g>
</g>
<g>
</g>
<g>
</g>
<g>
</g>
<g>
</g>
</svg>
